<?xml version="1.0" encoding="utf-8"?>
<!-- Generator: Adobe Illustrator 16.0.0, SVG Export Plug-In . SVG Version: 6.00 Build 0)  -->
<!DOCTYPE svg PUBLIC "-//W3C//DTD SVG 1.1//EN" "http://www.w3.org/Graphics/SVG/1.1/DTD/svg11.dtd">
<svg version="1.1" id="Livello_1" xmlns="http://www.w3.org/2000/svg" xmlns:xlink="http://www.w3.org/1999/xlink" x="0px" y="0px"
	 width="1920px" height="1080px" viewBox="0 0 1920 1080" enable-background="new 0 0 1920 1080" xml:space="preserve">
<g>
	<g>
		<g>
			<path fill="#9E005D" d="M640.786,196.995c0-3.732,2.7-6.603,6-6.379l20.745,1.409c3.3,0.224,8.7,0.59,12,0.814l17.448,1.185
				c3.3,0.224,8.7,0.612,12,0.861c0,0,20.678,1.563,32.807,2.796c12.133,1.231,22.614,5.702,31.448,13.392
				c7.526,6.557,13.415,14.11,17.67,22.664c4.253,8.534,6.378,17.423,6.378,26.688c0,8.358-1.751,16.212-5.257,23.573
				c-3.506,7.38-8.32,13.919-14.444,19.621c-11.312,10.591-22.577,16.03-33.795,16.264c-11.219,0.237-24.821,0.123-40.807-0.341
				v32.012c0,3.662-2.7,6.612-6,6.556l-50.193-0.855c-3.3-0.057-6-3.157-6-6.889V293.83c0-3.732,0-9.841,0-13.573v-54.949
				c0-3.732,0-9.84,0-13.573V196.995z M729.763,266.848v-14.152c0-3.631-0.667-9.517-1.483-13.081c0,0-0.27-1.179-3.774-4.307
				c-3.508-3.136-7.714-4.843-12.62-5.123l-2.905-0.165c-3.3-0.188-6,2.654-6,6.316c0,0,0,10.418,0,18.899
				c0,8.479,0,16.948,0,25.403l2.905,0.119c3.3,0.136,8.673-0.067,11.939-0.45c0,0,3.173-0.372,6.681-3.113
				C728.01,274.462,729.763,271.016,729.763,266.848z"/>
		</g>
		<g>
			<path fill="#9E005D" d="M816.06,153.126c0-3.533,2.7-6.193,6-5.91l50.263,4.308c3.3,0.283,6,3.348,6,6.81v150.588
				c0,3.462,2.7,6.383,6,6.489l45.285,1.456c3.3,0.106,6,2.973,6,6.37v32.764c0,3.397-2.7,6.131-6,6.075l-45.285-0.772
				c-3.3-0.057-8.7-0.148-12-0.205l-50.263-0.857c-3.3-0.056-6-2.993-6-6.526V153.126z"/>
		</g>
		<g>
			<path fill="#9E005D" d="M996.573,408.051c-1.068,3.148-4.643,5.727-7.942,5.727l-50.12,0.011c-3.3,0.001-5.126-2.631-4.059-5.846
				l63.638-187.543c1.067-3.076,4.641-5.408,7.94-5.184l73.331,4.973c3.3,0.224,6.683,3.007,7.516,6.184l35.461,133.386
				c0.833,3.097-1.185,5.583-4.484,5.527l-50.263-0.857c-3.3-0.057-6.677-2.692-7.505-5.859l-2.529-9.696
				c-0.828-3.174-4.205-5.839-7.505-5.919l-24.95-0.609c-3.3-0.081-6.874,2.39-7.942,5.491L996.573,408.051z M1041.582,287.798
				c-0.835-3.208-2.391-3.334-3.458-0.277l-3.549,10.179c-1.067,3.067,0.76,5.68,4.06,5.806l1.11,0.042
				c3.3,0.125,5.317-2.389,4.482-5.589L1041.582,287.798z"/>
		</g>
		<g>
			<path fill="#9E005D" d="M1135.2,229.74c0-3.17,2.7-5.582,6-5.358l59.587,4.041c3.3,0.224,6.913,2.847,8.029,5.827l18.517,49.095
				c1.116,2.938,2.029,2.833,2.029-0.231v-47.183c0-3.063,2.7-5.387,6-5.164l44.445,3.014c3.3,0.224,6,2.861,6,5.86v123.053
				c0,3-2.7,5.408-6,5.352l-59.871-1.021c-3.3-0.056-6.913-2.491-8.028-5.413l-18.238-48.094c-1.115-2.963-2.028-2.848-2.028,0.259
				v47.118c0,3.106-2.7,5.602-6,5.546l-44.441-0.758c-3.3-0.056-6-2.696-6-5.867V229.74z"/>
		</g>
		<g>
			<path fill="#9E005D" d="M640.952,448.676c0-3.732,2.7-6.81,6-6.839l151.776-1.329c3.3-0.029,6,2.849,6,6.395v45.243
				c0,3.546-2.7,6.522-6,6.612l-73.784,2.021c-3.3,0.09-6,3.146-6,6.789v4.049c0,3.644,2.7,6.537,6,6.428l59.328-1.945
				c3.3-0.108,6,2.719,6,6.281v36.388c0,3.563-2.7,6.608-6,6.769l-59.328,2.88c-3.3,0.16-6,3.272-6,6.916v0.418
				c0,3.644,2.7,6.482,6,6.309l73.784-3.896c3.3-0.174,6,2.585,6,6.131v45.242c0,3.547-2.7,6.641-6,6.877l-151.776,10.841
				c-3.3,0.235-6-2.625-6-6.357V448.676z"/>
		</g>
		<g>
			<path fill="#9E005D" d="M963.752,494.239c-3.3,0.09-6,2.924-6,6.296v118.391c0,3.372-2.7,6.324-6,6.56l-66.079,4.72
				c-3.3,0.236-6-2.403-6-5.864V502.835c0-3.461-2.7-6.219-6-6.128l-39.765,1.089c-3.3,0.09-6-2.715-6-6.235v-44.907
				c0-3.52,2.7-6.423,6-6.452l39.765-0.348c3.3-0.029,8.7-0.076,12-0.105l66.079-0.579c3.3-0.029,8.7-0.076,12-0.105l39.937-0.35
				c3.3-0.029,6,2.658,6,5.972v42.271c0,3.313-2.7,6.098-6,6.188L963.752,494.239z"/>
		</g>
		<g>
			<path fill="#9E005D" d="M1075.114,552.704c3.3-0.161,6,2.352,6,5.583v11.688c0,3.231-2.7,6.03-6,6.22l-31.791,1.819
				c-3.3,0.188-6-2.343-6-5.624v-11.867c0-3.281,2.7-6.1,6-6.261L1075.114,552.704z"/>
		</g>
		<g>
			<path fill="#9E005D" d="M1108.743,443.614c0-3.2,2.7-5.843,6-5.872l64.868-0.568c3.3-0.029,6.532-0.058,7.184-0.063
				c0,0,0,0,0.634-0.006c0.634-0.005,1.298-0.011,1.991-0.017c21.754-0.299,40.277,2.929,55.571,9.62
				c15.294,6.614,22.939,18.156,22.939,34.684c0,9.664-3.261,18.06-9.782,25.216c8.197,4.044,14.675,9.368,19.436,15.971
				c4.762,6.577,7.141,14.711,7.141,24.419c0,18.418-8.944,32.624-26.835,42.706c-17.891,10.203-39.5,16.413-64.835,18.546
				c-3.348,0.238-5.827,0.388-7.443,0.45l0,0c0,0.044-2.7,0.273-6,0.51l-64.868,4.633c-3.3,0.236-6-2.19-6-5.391V443.614z
				 M1191.611,464.448c-3.3,0.062-6,2.66-6,5.773v25.755c0,3.113,1.733,5.604,3.852,5.536s6.524-0.567,9.792-1.107
				c0,0,1.995-0.329,5.053-2.535c3.058-2.203,4.588-4.813,4.588-7.836v-9.447c0-3.087-0.678-8.042-1.506-11.014
				c0,0-0.024-0.086-3.082-2.16c-3.058-2.076-6.725-3.078-10.993-2.998L1191.611,464.448z M1191.611,528.904
				c-3.3,0.14-6,2.801-6,5.915v33.268c0,3.113,2.084,5.538,4.631,5.389c2.546-0.149,7.304-0.782,10.571-1.406
				c0,0,3.682-0.7,7.349-3.452c3.663-2.743,5.494-5.919,5.494-9.528v-12.503c0-3.081-0.676-8.012-1.502-10.958
				c0,0-0.329-1.176-3.992-3.578c-3.667-2.408-8.096-3.504-13.29-3.284L1191.611,528.904z"/>
		</g>
	</g>
</g>
<g>
	<g>
		<g>
			<linearGradient id="SVGID_1_" gradientUnits="userSpaceOnUse" x1="713.5234" y1="101.2642" x2="713.5234" y2="724.7991">
				<stop  offset="0" style="stop-color:#3D90D9"/>
				<stop  offset="1" style="stop-color:#99D0F2"/>
			</linearGradient>
			<path fill="url(#SVGID_1_)" d="M635.274,191.403c0-3.732,2.7-6.603,6-6.379l20.745,1.409c3.3,0.224,8.7,0.59,12,0.814
				l17.448,1.185c3.3,0.224,8.7,0.612,12,0.861c0,0,20.68,1.564,32.809,2.795c12.131,1.232,22.613,5.703,31.447,13.393
				c7.525,6.557,13.414,14.11,17.67,22.664c4.254,8.533,6.379,17.423,6.379,26.689c0,8.357-1.752,16.211-5.258,23.573
				c-3.506,7.378-8.32,13.918-14.445,19.621c-11.311,10.59-22.576,16.029-33.793,16.263c-11.221,0.236-24.823,0.123-40.809-0.341
				v32.011c0,3.662-2.7,6.612-6,6.556l-50.193-0.856c-3.3-0.056-6-3.156-6-6.889v-56.534c0-3.732,0-9.841,0-13.573v-54.947
				c0-3.732,0-9.841,0-13.573V191.403z M724.251,261.256v-14.151c0-3.631-0.667-9.517-1.482-13.081c0,0-0.27-1.18-3.773-4.307
				c-3.508-3.137-7.716-4.845-12.622-5.125l-2.905-0.166c-3.3-0.188-6,2.655-6,6.316c0,0,0,10.418,0,18.901
				c0,8.479,0,16.947,0,25.402l2.905,0.119c3.3,0.136,8.673-0.067,11.939-0.449c0,0,3.175-0.371,6.683-3.113
				C722.499,268.871,724.251,265.425,724.251,261.256z"/>
		</g>
		<g>
			<linearGradient id="SVGID_2_" gradientUnits="userSpaceOnUse" x1="870.3223" y1="117.8398" x2="870.3223" y2="710.083">
				<stop  offset="0" style="stop-color:#3D90D9"/>
				<stop  offset="1" style="stop-color:#99D0F2"/>
			</linearGradient>
			<path fill="url(#SVGID_2_)" d="M810.548,147.536c0-3.533,2.7-6.193,6-5.91l50.264,4.308c3.3,0.283,6,3.348,6,6.81V303.33
				c0,3.462,2.7,6.383,6,6.489l45.285,1.456c3.3,0.106,6,2.973,6,6.37v32.764c0,3.397-2.7,6.131-6,6.075l-45.285-0.772
				c-3.3-0.057-8.7-0.148-12-0.205l-50.264-0.857c-3.3-0.056-6-2.993-6-6.526V147.536z"/>
		</g>
		<g>
			<linearGradient id="SVGID_3_" gradientUnits="userSpaceOnUse" x1="1022.8252" y1="135.2061" x2="1022.8252" y2="687.6007">
				<stop  offset="0" style="stop-color:#3D90D9"/>
				<stop  offset="1" style="stop-color:#99D0F2"/>
			</linearGradient>
			<path fill="url(#SVGID_3_)" d="M991.063,402.459c-1.068,3.148-4.643,5.727-7.942,5.727l-50.121,0.011
				c-3.3,0.001-5.126-2.631-4.059-5.846l63.638-187.543c1.067-3.076,4.641-5.408,7.94-5.184l73.332,4.973
				c3.3,0.224,6.683,3.007,7.517,6.184l35.459,133.385c0.834,3.097-1.184,5.583-4.483,5.527l-50.264-0.857
				c-3.3-0.057-6.677-2.692-7.505-5.859l-2.529-9.695c-0.828-3.174-4.205-5.839-7.505-5.919l-24.949-0.609
				c-3.3-0.081-6.874,2.39-7.942,5.491L991.063,402.459z M1036.07,282.205c-0.834-3.208-2.39-3.334-3.457-0.277l-3.549,10.179
				c-1.067,3.067,0.76,5.681,4.06,5.806l1.109,0.042c3.3,0.125,5.317-2.389,4.483-5.589L1036.07,282.205z"/>
		</g>
		<g>
			<linearGradient id="SVGID_4_" gradientUnits="userSpaceOnUse" x1="1204.9922" y1="146.6353" x2="1204.9922" y2="682.2361">
				<stop  offset="0" style="stop-color:#3D90D9"/>
				<stop  offset="1" style="stop-color:#99D0F2"/>
			</linearGradient>
			<path fill="url(#SVGID_4_)" d="M1129.688,224.148c0-3.17,2.7-5.582,6-5.358l59.588,4.041c3.3,0.224,6.913,2.847,8.029,5.827
				l18.516,49.094c1.116,2.938,2.029,2.833,2.029-0.23V230.34c0-3.063,2.7-5.387,6-5.164l44.445,3.014c3.3,0.224,6,2.861,6,5.86
				v123.053c0,2.999-2.7,5.407-6,5.351l-59.869-1.021c-3.3-0.056-6.913-2.491-8.029-5.413l-18.238-48.093
				c-1.116-2.963-2.029-2.848-2.029,0.258v47.116c0,3.106-2.7,5.603-6,5.546l-44.441-0.758c-3.3-0.056-6-2.696-6-5.867V224.148z"/>
		</g>
		<g>
			<linearGradient id="SVGID_5_" gradientUnits="userSpaceOnUse" x1="717.3286" y1="98.2114" x2="717.3286" y2="722.534">
				<stop  offset="0" style="stop-color:#3D90D9"/>
				<stop  offset="1" style="stop-color:#99D0F2"/>
			</linearGradient>
			<path fill="url(#SVGID_5_)" d="M635.441,443.084c0-3.732,2.7-6.81,6-6.839l151.774-1.329c3.3-0.029,6,2.849,6,6.395v45.242
				c0,3.546-2.7,6.522-6,6.612l-73.782,2.021c-3.3,0.091-6,3.146-6,6.79v4.05c0,3.644,2.7,6.536,6,6.428l59.327-1.945
				c3.3-0.108,6,2.719,6,6.281v36.388c0,3.563-2.7,6.608-6,6.769l-59.327,2.88c-3.3,0.16-6,3.272-6,6.916v0.417
				c0,3.644,2.7,6.482,6,6.309l73.782-3.896c3.3-0.174,6,2.585,6,6.131v45.242c0,3.546-2.7,6.641-6,6.877l-151.774,10.841
				c-3.3,0.235-6-2.626-6-6.357V443.084z"/>
		</g>
		<g>
			<linearGradient id="SVGID_6_" gradientUnits="userSpaceOnUse" x1="913.2876" y1="121.2612" x2="913.2876" y2="699.5168">
				<stop  offset="0" style="stop-color:#3D90D9"/>
				<stop  offset="1" style="stop-color:#99D0F2"/>
			</linearGradient>
			<path fill="url(#SVGID_6_)" d="M958.241,488.646c-3.3,0.09-6,2.924-6,6.296v118.39c0,3.373-2.7,6.325-6,6.561l-66.08,4.72
				c-3.3,0.236-6-2.403-6-5.864V497.242c0-3.461-2.7-6.219-6-6.128l-39.764,1.089c-3.3,0.09-6-2.716-6-6.235v-44.906
				c0-3.52,2.7-6.423,6-6.452l39.764-0.348c3.3-0.029,8.7-0.076,12-0.105l66.08-0.579c3.3-0.029,8.7-0.076,12-0.105l39.938-0.35
				c3.3-0.029,6,2.658,6,5.972v42.27c0,3.313-2.7,6.098-6,6.188L958.241,488.646z"/>
		</g>
		<g>
			<linearGradient id="SVGID_7_" gradientUnits="userSpaceOnUse" x1="1053.708" y1="109.9521" x2="1053.708" y2="691.3778">
				<stop  offset="0" style="stop-color:#3D90D9"/>
				<stop  offset="1" style="stop-color:#99D0F2"/>
			</linearGradient>
			<path fill="url(#SVGID_7_)" d="M1069.604,547.113c3.3-0.161,6,2.352,6,5.583v11.687c0,3.231-2.7,6.03-6,6.22l-31.793,1.819
				c-3.3,0.188-6-2.343-6-5.624v-11.866c0-3.281,2.7-6.1,6-6.261L1069.604,547.113z"/>
		</g>
		<g>
			<linearGradient id="SVGID_8_" gradientUnits="userSpaceOnUse" x1="1191.2227" y1="143.5889" x2="1191.2227" y2="677.3994">
				<stop  offset="0" style="stop-color:#3D90D9"/>
				<stop  offset="1" style="stop-color:#99D0F2"/>
			</linearGradient>
			<path fill="url(#SVGID_8_)" d="M1103.231,438.022c0-3.2,2.7-5.843,6-5.872l64.869-0.568c3.3-0.029,6.532-0.058,7.184-0.063
				c0,0,0,0,0.633-0.006c0.635-0.005,1.299-0.011,1.992-0.017c21.754-0.299,40.277,2.929,55.572,9.62
				c15.295,6.614,22.938,18.156,22.938,34.684c0,9.664-3.26,18.06-9.781,25.215c8.197,4.045,14.674,9.368,19.436,15.972
				c4.762,6.578,7.141,14.711,7.141,24.42c0,18.418-8.945,32.623-26.836,42.706c-17.891,10.201-39.5,16.412-64.834,18.543
				c-3.348,0.239-5.828,0.39-7.443,0.451l0,0c0,0.044-2.7,0.273-6,0.51l-64.869,4.633c-3.3,0.236-6-2.189-6-5.391V438.022z
				 M1186.101,458.856c-3.3,0.062-6,2.66-6,5.773v25.754c0,3.113,1.733,5.604,3.852,5.536s6.524-0.567,9.792-1.107
				c0,0,1.995-0.33,5.052-2.536c3.059-2.201,4.588-4.812,4.588-7.835v-9.448c0-3.087-0.678-8.042-1.505-11.014
				c0,0-0.024-0.086-3.083-2.158c-3.057-2.076-6.723-3.077-10.992-2.997L1186.101,458.856z M1186.101,523.312
				c-3.3,0.14-6,2.801-6,5.915v33.27c0,3.112,2.084,5.538,4.631,5.389s7.305-0.782,10.572-1.406c0,0,3.68-0.7,7.348-3.452
				c3.662-2.745,5.494-5.919,5.494-9.53v-12.502c0-3.081-0.677-8.012-1.503-10.958c0,0-0.329-1.175-3.991-3.578
				c-3.668-2.406-8.096-3.504-13.289-3.284L1186.101,523.312z"/>
		</g>
	</g>
</g>
</svg>
